<?xml version="1.0" encoding="utf-8"?>
<!-- Generator: Adobe Illustrator 27.7.0, SVG Export Plug-In . SVG Version: 6.00 Build 0)  -->
<svg version="1.1" id="Camada_1" xmlns="http://www.w3.org/2000/svg" xmlns:xlink="http://www.w3.org/1999/xlink" x="0px" y="0px"
	 viewBox="0 0 500 500" style="enable-background:new 0 0 500 500;" xml:space="preserve">
<style type="text/css">
	.st0{fill:#EF5988;}
	.st1{fill:#27418C;}
</style>
<g>
	<path class="st0" d="M358.8,35c33.3,25.7,50.1,105.9,24.1,125c-26,19.1-84.3,26-69.5,49.5c14.8,23.6,100.4,6.4,117.9,36.4
		c17.5,30,21.7,75.3-11.8,87.8c-33.6,12.5-104,26.6-100.9,49.2c3.1,22.6,51.1,34.4,36.6,72.9c-14.5,38.5-131.6,48.6-155.2-0.3
		c-23.6-48.9,2.2-142.9-20.4-160.6C157.1,277.3,13.9,170.7,34.9,96.4C55.9,22,119.9-3.8,152,20.2s29.9,85.5,51.9,81.9
		C226,98.6,279.5-26.3,358.8,35z"/>
	<g>
		<g>
			<g>
				<path class="st1" d="M444.9,183.8c-12.7,5.6-26.1,10.6-40,12.3c-12.4,1.4-25.5,0.2-36.1-6.7c-10.6-6.9-16.6-18.3-22.8-28.9
					c-6.4-10.9-13.9-20.8-25.5-26.6c-27-13.5-57.3-3-83.6,6.7c-29.1,10.7-57.3,23.8-85.8,36.1c-28.7,12.4-57.7,24.2-88,32.1
					c-3.8,1-7.5,1.9-11.3,2.8c-2.2,0.5-1.2,3.8,0.9,3.3c30.5-6.9,59.8-18.1,88.6-30.4c28.7-12.2,57-25.5,86.2-36.8
					c14.3-5.6,29-11.2,44-14.5c14-3.1,28.8-3.6,42.4,1.4c6.2,2.3,12.1,5.8,16.8,10.5c4.4,4.3,7.9,9.5,11.1,14.8
					c6.3,10.5,11.8,21.9,21.6,29.7c21,16.6,50.2,10.2,72.9,1.2c3.5-1.4,6.9-2.8,10.3-4.3C448.4,185.7,446.8,183,444.9,183.8
					L444.9,183.8z"/>
			</g>
		</g>
		<g>
			<g>
				<path class="st1" d="M460,213.4c-27.2,12.8-57,22.9-87.5,19.2c-13-1.6-25.8-5.6-37.1-12.2c-11.3-6.6-19.9-15.6-27.2-26.3
					c-6.6-9.8-12.6-20.6-21.8-28.2c-4.4-3.7-9.5-6.5-15.1-7.7c-7.9-1.7-16.1-0.4-23.8,1.6c-15,3.8-29.1,10.6-42.9,17.6
					c-14.4,7.3-28.8,14.5-43.7,20.6c-30.1,12.4-61.3,21.7-92.8,30c-3.9,1-7.8,2.1-11.7,3.1c-2,0.5-1.1,3.6,0.8,3.1
					c31.6-8.2,63.2-17.1,93.7-28.8c15-5.7,29.6-12.2,44-19.4c14.1-7.1,28-14.7,43-19.9c7.6-2.6,15.7-5,23.8-5.4
					c7-0.3,13.6,1.4,19.4,5.3c9.9,6.7,16.2,17.7,22.7,27.5c3.4,5.1,6.9,10.1,11,14.6c4.3,4.8,9.3,9,14.7,12.5
					c10.8,7.2,23.3,11.8,36,14.2c29.3,5.4,58.5-2.1,85.3-13.8c3.6-1.6,7.1-3.2,10.7-4.9C463.3,215.2,461.8,212.6,460,213.4
					L460,213.4z"/>
			</g>
		</g>
		<g>
			<g>
				<path class="st1" d="M466.3,234.6c-7.2,3-14.4,5.9-21.8,8.5c-3.6,1.3-7.2,2.5-10.8,3.6c-3.3,1-6.7,1.8-9.9,3.1
					c-12.4,4.8-23,13.5-36.6,14.9c-28.5,2.9-59.5,2.6-83.6-15.3c-5.5-4.1-10.2-9-14.1-14.6c-4-5.8-7.2-12-10.7-18.1
					c-6-10.6-13.7-21.6-25.4-26.4c-14-5.8-27.9,1.9-40.7,7.3c-14.3,6.1-28.7,11.9-43.2,17.4c-29.1,11.1-58.5,21.2-88.2,30.4
					c-3.6,1.1-7.3,2.2-10.9,3.3c-1.3,0.4-0.7,2.3,0.5,2c29.8-9,59.3-18.9,88.5-29.7c14.5-5.4,28.9-10.9,43.2-16.7
					c7.1-2.9,14.2-5.9,21.3-8.8c7.1-2.9,14.8-5.7,22.6-4.5c13,2,22.1,13.4,28.4,24c7,11.8,12.7,24.1,23.3,33.2
					c21.8,18.8,51.5,21.8,79.1,19.8c6.9-0.5,13.9-0.8,20.5-3.1c6.1-2.2,11.7-5.5,17.4-8.5c3-1.6,6-3.1,9.2-4.4
					c3.2-1.3,6.6-2.1,9.9-3.1c7.5-2.3,14.8-5,22.1-7.9c3.5-1.4,7-2.8,10.5-4.3C468.2,236.2,467.6,234.1,466.3,234.6L466.3,234.6z"/>
			</g>
		</g>
		<g>
			<g>
				<path class="st1" d="M463.3,257.5c-29.2,11.5-58.4,25.1-89.5,30.9c-14.3,2.7-29.1,3.6-43.5,1.3c-12-1.9-23.6-5.8-34.2-11.7
					c-10.4-5.8-19.9-13.7-26.7-23.6c-6.6-9.4-9.2-20.6-14.8-30.5c-2.4-4.2-5.5-8.3-9.8-10.8c-5.7-3.3-12-2.6-18-0.8
					c-15.3,4.5-30.5,9.8-45.5,15.2c-30.1,10.8-59.5,23.1-88.7,36.2c-3.6,1.6-7.3,3.3-10.9,4.9c-1.2,0.5-0.2,2.3,1,1.7
					c15-6.6,29.8-13.5,44.8-19.8c14.7-6.2,29.6-12.1,44.6-17.6c14.9-5.5,30-10.6,45.2-15.3c3.7-1.1,7.4-2.3,11.1-3.3
					c3.7-1,7.5-1.7,11.3-0.7c5.1,1.3,8.7,5.2,11.5,9.4c6.1,9.5,8.5,20.8,14.6,30.4c6.3,9.9,15,18,24.9,24.2
					c21.8,13.8,47.9,17.8,73.2,14.8c31.1-3.8,60.2-16.6,89-28.1c3.8-1.5,7.5-3,11.3-4.5C465.4,259.2,464.8,256.9,463.3,257.5
					L463.3,257.5z"/>
			</g>
		</g>
		<g>
			<g>
				<path class="st1" d="M87,288.4c30-10,59.4-21.7,88.8-33.3c14.6-5.8,29.2-11.5,43.9-17c6-2.2,13-5.9,19-1.8
					c4.1,2.8,6.3,8,7.7,12.6c1.6,5,2.5,10.2,4,15.3c1.6,5.5,4,10.9,7,15.8c6.1,10,14.8,18.6,25,24.5c11.6,6.8,25,9.4,38.2,10.3
					c14.8,1,29.7-0.7,44.1-4.3c7.4-1.9,14.6-4.5,21.9-7.1c7.3-2.6,14.7-5.2,22.1-7.7c15-5.1,30.1-9.9,45.3-14.3
					c3.8-1.1,7.6-2.2,11.4-3.3c1.3-0.4,0.7-2.3-0.5-2c-15.3,4.3-30.4,8.9-45.5,13.8c-14.9,4.9-29.5,10.4-44.4,15.3
					c-14.3,4.7-29.3,7.5-44.4,7.6c-14.2,0.1-29.4-1.6-42.3-7.8c-10.8-5.2-20.3-13.4-27-23.4c-3.3-4.9-6.1-10.3-7.9-16
					c-1.7-5.2-2.6-10.6-4.1-15.8c-2.7-9-8.1-19.4-19.3-17.6c-3.7,0.6-7.3,2.2-10.7,3.5c-3.7,1.4-7.3,2.8-11,4.2
					c-7.3,2.8-14.6,5.7-21.9,8.5c-29.4,11.6-58.8,23.5-88.6,34c-3.7,1.3-7.4,2.6-11.1,3.8C85.3,286.9,85.8,288.8,87,288.4L87,288.4z
					"/>
			</g>
		</g>
		<g>
			<g>
				<path class="st1" d="M464.1,295.1c-25.8,7-51.3,15.1-77.1,22.3c-12.8,3.6-25.7,7-38.8,9.9c-13,2.9-26.3,6-39.7,6.5
					c-11.9,0.5-24-1.4-34.4-7.5c-4.6-2.7-8.8-6.1-12.1-10.3c-3.5-4.3-5.6-9.4-7.2-14.6c-3-9.9-5.3-20.3-14.3-26.5
					c-8-5.5-18.5-6-27.8-4.8c-11.9,1.5-23.6,5.3-34.9,9.1c-12.5,4.2-24.8,8.9-37.1,13.7c-3,1.2-6.1,2.4-9.1,3.6
					c-1.4,0.5-0.8,2.7,0.6,2.2c12.4-4.9,24.7-9.8,37.2-14.2c12-4.2,24.3-8.3,36.7-10.9c9.5-2,20.4-2.9,29.4,1.3
					c4.7,2.2,8.5,5.8,11,10.4c2.6,4.7,3.9,10,5.4,15.1c1.5,5.1,3.2,10.2,6.2,14.6c2.8,4.2,6.4,7.8,10.5,10.7
					c9.1,6.6,20.1,9.8,31.2,10.5c13.2,0.8,26.4-1.8,39.3-4.4c13.1-2.7,26-5.9,38.9-9.4c25.8-7,51.4-15.1,77.1-22.4
					c3.2-0.9,6.4-1.8,9.5-2.7C466.1,296.9,465.5,294.7,464.1,295.1L464.1,295.1z"/>
			</g>
		</g>
		<g>
			<g>
				<path class="st1" d="M466.8,320.1c-26.6,7.5-52.7,16.6-79.4,23.8c-25.6,6.9-51.8,11.9-78.3,14c-6.7,0.5-13.4,0.9-20.2,1
					c-6.1,0.1-12.2,0.3-18.3-0.2c-9.6-0.8-20.2-3.7-26.7-11.3c-7.9-9.1-4.9-22.3-10.6-32.5c-5.1-9.1-14.8-15.2-24.8-17.7
					c-12.8-3.2-26.3-0.7-38.9,2.5c-13.6,3.5-27.1,7.6-40.5,11.8c-3.4,1-6.7,2.1-10.1,3.1c-1.8,0.5-1,3.3,0.8,2.8
					c13.5-4.1,26.9-8.4,40.4-12.2c13.3-3.7,27.1-7.7,41.1-6.3c10.8,1.1,21.9,6.2,28.1,15.3c6.7,9.9,3.7,22.9,10.5,32.8
					c5.5,8.1,15.1,12.1,24.5,13.8c5.3,0.9,10.5,1.1,15.9,1.1c6.8,0,13.6-0.2,20.3-0.6c26.4-1.5,52.5-5.8,78.1-12.3
					c26.5-6.7,52.3-15.7,78.5-23.5c3.4-1,6.8-2,10.1-2.9C469.2,322.2,468.5,319.6,466.8,320.1L466.8,320.1z"/>
			</g>
		</g>
	</g>
</g>
</svg>
